# xmcd CD database file
#
# Track frame offsets:
#	150
#	15650
#	34685
#	50335
#	70000
#	88845
#	98705
#	119662
#	137860
#	154245
#	178265
#
# Disc length: 2681 seconds
#
# Revision: 0
# Processed by: cddbd v1.5.1PL2 Copyright (c) Steve Scherf et al.
# Submitted via: CDex 1.51
#
DISCID=950a770b
DTITLE=NUDE - COOL ZERO
DYEAR=1900
DGENRE=Rock
TTITLE0=SILK
TTITLE1=ためいきの中で
TTITLE2=NAKED DANCE
TTITLE3=DESTINY
TTITLE4=STAY ON MY MEMORY
TTITLE5=SUICIDE GAME
TTITLE6=WISH MY DREAM
TTITLE7=MISTAKE (ALONE NIGHT)
TTITLE8=PAINLESS PREASURE
TTITLE9=涙に抱かれて
TTITLE10=BREATH FOR YOU
EXTD=
EXTT0=
EXTT1=
EXTT2=
EXTT3=
EXTT4=
EXTT5=
EXTT6=
EXTT7=
EXTT8=
EXTT9=
EXTT10=
PLAYORDER=
